<?xml version="1.0" encoding="iso-8859-1"?>
<!-- Generator: Adobe Illustrator 19.0.0, SVG Export Plug-In . SVG Version: 6.00 Build 0)  -->
<svg xmlns="http://www.w3.org/2000/svg" xmlns:xlink="http://www.w3.org/1999/xlink" version="1.1" id="Layer_1" x="0px" y="0px" viewBox="0 0 511.733 511.733" style="fill: #fff" xml:space="preserve" width="512" height="512">
	<g>
		<path d="M466.181,18.668L456.849,0L284.527,172.322l10.607,10.607c5.94,5.94,5.94,15.273,0,21.213c-5.94,5.94-15.273,5.94-21.213,0   l-10.607-10.607l-84.853,84.853l-21.213-21.213l-21.213,21.213l127.279,127.279l21.213-21.213l-21.213-21.213l175.504-175.505   C483.365,143.189,494.608,75.094,466.181,18.668z"/>
		<rect x="107.854" y="358.847" transform="matrix(-0.7071 -0.7071 0.7071 -0.7071 22.1947 756.8882)" width="120" height="30"/>
		<rect x="65.428" y="401.274" transform="matrix(-0.7071 -0.7071 0.7071 -0.7071 -80.2315 799.3146)" width="120" height="30"/>
		<rect x="23.001" y="443.7" transform="matrix(-0.7071 -0.7071 0.7071 -0.7071 -182.6578 841.7412)" width="120" height="30"/>
	</g>
</svg>
