<?xml version="1.0" encoding="iso-8859-1"?>
<!-- Generator: Adobe Illustrator 19.0.0, SVG Export Plug-In . SVG Version: 6.00 Build 0)  -->
<svg xmlns="http://www.w3.org/2000/svg" xmlns:xlink="http://www.w3.org/1999/xlink" version="1.1" id="Layer_1" x="0px" y="0px" viewBox="0 0 512 512" style="fill: #fff" xml:space="preserve" width="512" height="512">
<g>
	<path d="M312.704,189.145c-10.625,7.416-15.28,30.472,1.23,54.067c16.51,23.562,39.843,27.098,50.361,19.644   c10.625-7.416,15.28-30.472-1.23-54.067C346.521,185.178,323.218,181.73,312.704,189.145z"/>
	<path d="M144.423,208.788c-13.989,19.98-14.546,44.751-1.23,54.067c10.614,7.467,33.907,3.86,50.376-19.644   c16.476-23.547,11.886-46.627,1.245-54.067C181.439,179.813,158.397,188.822,144.423,208.788z"/>
	<path d="M481,196C481,88.48,380.072,0,256,0S31,88.48,31,196c0,35.889,11.338,70.972,32.769,101.455   c11.206,15.923,14.619,37.148,9.36,58.213c-8.599,34.365,7.529,69.434,39.214,85.269l8.657,4.336V512h45v-91h30v91h45v-91h30v91h45   v-91h30v91h45v-66.728l8.657-4.336c31.685-15.835,47.813-50.903,39.214-85.283c-5.259-21.064-1.846-42.275,9.36-58.198   C469.662,266.972,481,231.889,481,196z M125.98,287.436c-27.1-18.984-29.839-61.978-6.138-95.845v-0.015   c23.745-33.882,65.083-45.952,92.168-27.012c25.206,17.663,31.849,59.134,6.138,95.859   C192.097,297.6,150.739,304.775,125.98,287.436z M241,361h-30v-60h30V361z M301,361h-30v-60h30V361z M381.508,287.436   c-28.469,19.938-69.302,5.615-92.153-27.026c-25.726-36.712-19.052-78.193,6.138-95.845c25.212-17.621,66.437-9.687,92.153,27.012   C413.357,228.302,406.714,269.772,381.508,287.436z"/>
</g>















</svg>
