<?xml version="1.0" encoding="iso-8859-1"?>
<!-- Generator: Adobe Illustrator 19.0.0, SVG Export Plug-In . SVG Version: 6.00 Build 0)  -->
<svg version="1.1" id="Capa_1" xmlns="http://www.w3.org/2000/svg" xmlns:xlink="http://www.w3.org/1999/xlink" x="0px" y="0px"
	 viewBox="0 0 512 512" style="fill: #fff" xml:space="preserve">
<g>
	<g>
		<path d="M256,0C114.848,0,0,114.848,0,256s114.848,256,256,256s256-114.848,256-256S397.152,0,256,0z M294.4,179.2l64-48
			c7.04-5.28,17.056-3.904,22.4,3.2c5.28,7.072,3.84,17.088-3.232,22.4L330.656,192l46.944,35.2
			c7.072,5.312,8.512,15.328,3.232,22.4c-3.168,4.192-8,6.4-12.832,6.4c-3.328,0-6.72-1.056-9.6-3.2l-64-48
			c-4.032-3.008-6.4-7.776-6.4-12.8S290.368,182.208,294.4,179.2z M134.4,156.8c-7.072-5.312-8.512-15.328-3.2-22.4
			c5.312-7.072,15.328-8.512,22.4-3.2l64,48c4.032,3.008,6.4,7.776,6.4,12.8s-2.368,9.792-6.4,12.8l-64,48
			c-2.88,2.144-6.24,3.2-9.6,3.2c-4.864,0-9.664-2.208-12.8-6.4c-5.312-7.072-3.872-17.088,3.2-22.4l46.944-35.2L134.4,156.8z
			 M256,448c-85.6,0-161.536-57.44-184.672-139.648c-1.376-4.864-0.384-10.016,2.656-14.016c3.008-4,7.712-6.336,12.736-6.336
			h338.56c4.992,0,9.728,2.336,12.736,6.336s4,9.152,2.656,14.016C417.536,390.56,341.6,448,256,448z"/>
	</g>
</g>
<g>
</g>
<g>
</g>
<g>
</g>
<g>
</g>
<g>
</g>
<g>
</g>
<g>
</g>
<g>
</g>
<g>
</g>
<g>
</g>
<g>
</g>
<g>
</g>
<g>
</g>
<g>
</g>
<g>
</g>
</svg>
